<svg id="Layer_1" data-name="Layer 1" xmlns="http://www.w3.org/2000/svg" viewBox="0 0 301.1 107.8"><defs><style>.cls-1{fill:#4486a0;}.cls-2{fill:#81ccb7;}.cls-3{fill:#e6537f;}.cls-4{isolation:isolate;}.cls-5{fill:#333;}</style></defs><title>Meeting Bullet_09</title><circle class="cls-1" cx="15.5" cy="15.5" r="15.5"/><circle class="cls-2" cx="15.5" cy="52.9" r="15.5"/><circle class="cls-3" cx="15.5" cy="90.3" r="15.5"/><g class="cls-4"><path class="cls-5" d="M398.5,252a3.3,3.3,0,0,1,3.1-2.1,2.86,2.86,0,0,1,3.2,3.2v42c0,2.2-1.1,3.3-3.2,3.3s-3.3-1.1-3.3-3.3V266.3l-14.8,30.1a3.25,3.25,0,0,1-6,0l-14.8-30.1v28.8q0,3.3-3.3,3.3c-2.1,0-3.2-1.1-3.2-3.3v-42a2.86,2.86,0,0,1,3.2-3.2,3.3,3.3,0,0,1,3.1,2.1l18,36.9Z" transform="translate(-303 -249.3)"/><path class="cls-5" d="M441.2,271a16.88,16.88,0,0,1,4,11.6c0,1.5-.9,2.3-2.6,2.3H421.3c0.4,5.7,3.6,8.6,9.6,8.6a12.11,12.11,0,0,0,8.3-3.5,3.12,3.12,0,0,1,2.2-1.1c1.9,0,2.8.9,2.8,2.8a2.8,2.8,0,0,1-.9,1.9c-3,3.5-7.2,5.2-12.6,5.2-5.1,0-9.1-1.6-12.1-4.8-2.8-3-4.1-6.8-4.1-11.5a16.15,16.15,0,0,1,4.5-11.7,15.15,15.15,0,0,1,11.4-4.6A13.7,13.7,0,0,1,441.2,271Zm-2.2,8.4a9.56,9.56,0,0,0-2.7-5.6,8.07,8.07,0,0,0-5.9-2.4c-5.2,0-8.1,2.6-8.9,7.9H439v0.1Z" transform="translate(-303 -249.3)"/><path class="cls-5" d="M478.7,271a16.88,16.88,0,0,1,4,11.6c0,1.5-.9,2.3-2.6,2.3H458.8c0.4,5.7,3.6,8.6,9.6,8.6a12.11,12.11,0,0,0,8.3-3.5,3.12,3.12,0,0,1,2.2-1.1c1.9,0,2.8.9,2.8,2.8a2.8,2.8,0,0,1-.9,1.9c-3,3.5-7.2,5.2-12.6,5.2-5.1,0-9.1-1.6-12.1-4.8-2.8-3-4.1-6.8-4.1-11.5a16.15,16.15,0,0,1,4.5-11.7,15.15,15.15,0,0,1,11.4-4.6A13.7,13.7,0,0,1,478.7,271Zm-2.2,8.4a9.56,9.56,0,0,0-2.7-5.6,8.07,8.07,0,0,0-5.9-2.4c-5.2,0-8.1,2.6-8.9,7.9h17.5v0.1Z" transform="translate(-303 -249.3)"/><path class="cls-5" d="M501.9,295.2q0,3.3-3.3,3.3t-3.3-3.3V272.6h-5.4c-1.9,0-2.8-.9-2.8-2.8s0.9-2.8,2.8-2.8h5.4v-9.3q0-3.3,3.3-3.3t3.3,3.3V267H508c1.9,0,2.8.9,2.8,2.8s-0.9,2.8-2.8,2.8h-6.1v22.6Z" transform="translate(-303 -249.3)"/><path class="cls-5" d="M519.4,253.8q3.9,0,3.9,3.9t-3.9,3.9q-3.9,0-3.9-3.9T519.4,253.8Zm3.4,41.4q0,3.3-3.3,3.3c-2.2,0-3.4-1.1-3.4-3.3V269.9c0-2.2,1.1-3.3,3.4-3.3s3.3,1.1,3.3,3.3v25.3Z" transform="translate(-303 -249.3)"/><path class="cls-5" d="M563.2,295.2q0,3.3-3.3,3.3t-3.3-3.3V281q0-8.7-8.1-8.7a7.85,7.85,0,0,0-6.2,2.5,8.72,8.72,0,0,0-2.2,6.2v14.1c0,2.2-1.1,3.3-3.4,3.3s-3.3-1.1-3.3-3.3V269.8c0-2.3,1.1-3.4,3.3-3.4s3.4,1.1,3.4,3.4v2.3q3.15-6,10.2-6a11.9,11.9,0,0,1,9.5,4.1,15.67,15.67,0,0,1,3.4,10.4v14.6h0Z" transform="translate(-303 -249.3)"/><path class="cls-5" d="M604.1,295.7q0,7.65-3.9,11.7c-2.8,2.9-7.1,4.3-12.8,4.3a25.08,25.08,0,0,1-6.2-.7,24.37,24.37,0,0,1-6.3-2.5,3.07,3.07,0,0,1-1.8-2.6,2.59,2.59,0,0,1,1.4-2.4,3.07,3.07,0,0,1,3.3.2,17.63,17.63,0,0,0,9,2.6c3.8,0,6.6-.9,8.2-2.7,1.4-1.6,2.2-4.1,2.2-7.5v-4.6q-3.45,6-10.8,6a14.21,14.21,0,0,1-11-4.7,17.4,17.4,0,0,1,0-22.2,14.13,14.13,0,0,1,11-4.6c5.1,0,8.8,2,11,6v-2.3c0-2.3,1.1-3.4,3.2-3.4s3.3,1.1,3.3,3.3v26.1h0.2Zm-9.3-20.9a8.87,8.87,0,0,0-6.9-3,9,9,0,0,0-6.9,2.9,10,10,0,0,0-2.6,7.2,10.43,10.43,0,0,0,2.6,7.2,9.13,9.13,0,0,0,6.9,2.9,8.87,8.87,0,0,0,6.9-3,10.43,10.43,0,0,0,2.6-7.2A10.1,10.1,0,0,0,594.8,274.8Z" transform="translate(-303 -249.3)"/></g><g class="cls-4"><path class="cls-5" d="M389.4,352.1c-3,2.7-7.2,4.1-12.4,4.1H359.6c-2.3,0-3.4-1.2-3.4-3.5V312.2c0-2.3,1.1-3.4,3.4-3.4h16.6c4.4,0,8,1.1,10.6,3.2a10.44,10.44,0,0,1,3.9,8.5c0,4.8-2.4,8.2-7.3,10.3a13.07,13.07,0,0,1,7.3,3.7,12,12,0,0,1,2.9,8.3A12.33,12.33,0,0,1,389.4,352.1Zm-13-37.1H363v13.2h13.5a7,7,0,0,0,5.4-2.1,6.57,6.57,0,0,0,1.8-4.7C383.8,317.1,381.3,315,376.4,315ZM363,334.3v15.8h14.5c6.1,0,9.2-2.7,9.2-8s-3.1-7.8-9.3-7.8H363Z" transform="translate(-303 -249.3)"/><path class="cls-5" d="M402,328.1q0-3.3,3.3-3.3c2.2,0,3.4,1.1,3.4,3.3v14.2c0,5.8,2.7,8.7,8,8.7a7.85,7.85,0,0,0,6.2-2.5,8.72,8.72,0,0,0,2.2-6.2V328.1q0-3.3,3.3-3.3t3.3,3.3v25.3c0,2.3-1.1,3.4-3.3,3.4s-3.3-1.1-3.3-3.4v-2.3c-2.1,4-5.5,6-10.3,6a11.9,11.9,0,0,1-9.5-4.1,15.67,15.67,0,0,1-3.4-10.4V328.1H402Z" transform="translate(-303 -249.3)"/><path class="cls-5" d="M449.2,353.5c0,2.2-1.1,3.3-3.4,3.3s-3.3-1.1-3.3-3.3V311.7q0-3.3,3.3-3.3c2.2,0,3.4,1.1,3.4,3.3v41.8Z" transform="translate(-303 -249.3)"/><path class="cls-5" d="M466.6,353.5c0,2.2-1.1,3.3-3.4,3.3s-3.3-1.1-3.3-3.3V311.7q0-3.3,3.3-3.3c2.2,0,3.4,1.1,3.4,3.3v41.8Z" transform="translate(-303 -249.3)"/><path class="cls-5" d="M501.9,329.3a16.88,16.88,0,0,1,4,11.6c0,1.5-.9,2.3-2.6,2.3H482c0.4,5.7,3.6,8.6,9.6,8.6a12.11,12.11,0,0,0,8.3-3.5,3.12,3.12,0,0,1,2.2-1.1c1.9,0,2.8.9,2.8,2.8a2.8,2.8,0,0,1-.9,1.9c-3,3.5-7.2,5.2-12.6,5.2-5.1,0-9.1-1.6-12.1-4.8-2.8-3-4.1-6.8-4.1-11.5a16.15,16.15,0,0,1,4.5-11.7,15.15,15.15,0,0,1,11.4-4.6A13.42,13.42,0,0,1,501.9,329.3Zm-2.1,8.4a9.56,9.56,0,0,0-2.7-5.6,8.07,8.07,0,0,0-5.9-2.4c-5.2,0-8.1,2.6-8.9,7.9h17.5v0.1Z" transform="translate(-303 -249.3)"/><path class="cls-5" d="M525.1,353.5q0,3.3-3.3,3.3t-3.3-3.3V330.9h-5.4c-1.9,0-2.8-.9-2.8-2.8s0.9-2.8,2.8-2.8h5.4V316q0-3.3,3.3-3.3t3.3,3.3v9.3h6.1c1.9,0,2.8.9,2.8,2.8s-0.9,2.8-2.8,2.8h-6.1v22.6Z" transform="translate(-303 -249.3)"/></g></svg>