<?xml version="1.0" encoding="utf-8"?>
<!-- Generator: Adobe Illustrator 20.1.0, SVG Export Plug-In . SVG Version: 6.00 Build 0)  -->
<svg version="1.1" id="Layer_1" xmlns="http://www.w3.org/2000/svg" xmlns:xlink="http://www.w3.org/1999/xlink" x="0px" y="0px"
	 viewBox="0 0 301.1 107.8" style="enable-background:new 0 0 301.1 107.8;" xml:space="preserve">
<style type="text/css">
	.st0{fill:#4486A0;}
	.st1{fill:#81CCB7;}
	.st2{fill:#E6537F;}
	.st3{fill:#FFFFFF;}
</style>
<title>Meeting Bullet_09</title>
<circle class="st0" cx="15.5" cy="15.5" r="15.5"/>
<circle class="st1" cx="15.5" cy="52.9" r="15.5"/>
<circle class="st2" cx="15.5" cy="90.3" r="15.5"/>
<g>
	<path class="st3" d="M95.5,2.7c0.5-1.3,1.7-2.1,3.1-2.1c1.6-0.2,3,0.9,3.2,2.5c0,0.2,0,0.5,0,0.7v42c0,2.2-1.1,3.3-3.2,3.3
		s-3.3-1.1-3.3-3.3V17L80.5,47.1c-0.7,1.7-2.6,2.4-4.2,1.8c-0.8-0.3-1.4-1-1.8-1.8L59.7,17v28.8c0,2.2-1.1,3.3-3.3,3.3
		c-2.1,0-3.2-1.1-3.2-3.3v-42c-0.2-1.6,0.9-3,2.5-3.2c0.2,0,0.5,0,0.7,0c1.4,0,2.6,0.8,3.1,2.1l18,36.9L95.5,2.7z"/>
	<path class="st3" d="M138.2,21.7c2.7,3.2,4.2,7.4,4,11.6c0,1.5-0.9,2.3-2.6,2.3h-21.3c0.4,5.7,3.6,8.6,9.6,8.6
		c3.1-0.1,6.1-1.3,8.3-3.5c0.6-0.7,1.3-1.1,2.2-1.1c1.9,0,2.8,0.9,2.8,2.8c0,0.7-0.4,1.4-0.9,1.9c-3,3.5-7.2,5.2-12.6,5.2
		c-5.1,0-9.1-1.6-12.1-4.8c-2.8-3-4.1-6.8-4.1-11.5c-0.1-4.3,1.5-8.6,4.5-11.7c3-3.1,7.1-4.7,11.4-4.6
		C131.5,16.8,135.5,18.5,138.2,21.7z M136,30.1c-0.3-2.1-1.2-4.1-2.7-5.6c-1.6-1.6-3.7-2.4-5.9-2.4c-5.2,0-8.1,2.6-8.9,7.9H136V30.1
		z"/>
	<path class="st3" d="M175.7,21.7c2.7,3.2,4.2,7.4,4,11.6c0,1.5-0.9,2.3-2.6,2.3h-21.3c0.4,5.7,3.6,8.6,9.6,8.6
		c3.1-0.1,6.1-1.3,8.3-3.5c0.6-0.7,1.3-1.1,2.2-1.1c1.9,0,2.8,0.9,2.8,2.8c0,0.7-0.4,1.4-0.9,1.9c-3,3.5-7.2,5.2-12.6,5.2
		c-5.1,0-9.1-1.6-12.1-4.8c-2.8-3-4.1-6.8-4.1-11.5c-0.1-4.3,1.5-8.6,4.5-11.7c3-3.1,7.1-4.7,11.4-4.6C169,16.8,173,18.5,175.7,21.7
		z M173.5,30.1c-0.3-2.1-1.2-4.1-2.7-5.6c-1.6-1.6-3.7-2.4-5.9-2.4c-5.2,0-8.1,2.6-8.9,7.9h17.5V30.1z"/>
	<path class="st3" d="M198.9,45.9c0,2.2-1.1,3.3-3.3,3.3c-2.2,0-3.3-1.1-3.3-3.3V23.3h-5.4c-1.9,0-2.8-0.9-2.8-2.8s0.9-2.8,2.8-2.8
		h5.4V8.4c0-2.2,1.1-3.3,3.3-3.3c2.2,0,3.3,1.1,3.3,3.3v9.3h6.1c1.9,0,2.8,0.9,2.8,2.8s-0.9,2.8-2.8,2.8h-6.1V45.9L198.9,45.9z"/>
	<path class="st3" d="M216.4,4.5c2.6,0,3.9,1.3,3.9,3.9c0,2.6-1.3,3.9-3.9,3.9s-3.9-1.3-3.9-3.9C212.5,5.8,213.8,4.5,216.4,4.5z
		 M219.8,45.9c0,2.2-1.1,3.3-3.3,3.3c-2.2,0-3.4-1.1-3.4-3.3V20.6c0-2.2,1.1-3.3,3.4-3.3s3.3,1.1,3.3,3.3V45.9L219.8,45.9z"/>
	<path class="st3" d="M260.2,45.9c0,2.2-1.1,3.3-3.3,3.3s-3.3-1.1-3.3-3.3V31.7c0-5.8-2.7-8.7-8.1-8.7c-2.3-0.1-4.6,0.8-6.2,2.5
		c-1.5,1.7-2.3,3.9-2.2,6.2v14.1c0,2.2-1.1,3.3-3.4,3.3s-3.3-1.1-3.3-3.3V20.5c0-2.3,1.1-3.4,3.3-3.4s3.4,1.1,3.4,3.4v2.3
		c2.1-4,5.5-6,10.2-6c3.6-0.2,7.1,1.4,9.5,4.1c2.3,2.9,3.6,6.6,3.4,10.4L260.2,45.9L260.2,45.9L260.2,45.9z"/>
	<path class="st3" d="M301.1,46.4c0,5.1-1.3,9-3.9,11.7c-2.8,2.9-7.1,4.3-12.8,4.3c-2.1,0-4.2-0.2-6.2-0.7c-2.2-0.5-4.3-1.4-6.3-2.5
		c-1-0.5-1.7-1.5-1.8-2.6c0-1,0.5-1.9,1.4-2.4c1-0.6,2.3-0.5,3.3,0.2c2.7,1.7,5.8,2.6,9,2.6c3.8,0,6.6-0.9,8.2-2.7
		c1.4-1.6,2.2-4.1,2.2-7.5v-4.6c-2.3,4-5.9,6-10.8,6c-4.2,0.1-8.2-1.6-11-4.7c-5.3-6.4-5.3-15.8,0-22.2c2.8-3.1,6.8-4.8,11-4.6
		c5.1,0,8.8,2,11,6v-2.3c0-2.3,1.1-3.4,3.2-3.4s3.3,1.1,3.3,3.3v26.1L301.1,46.4L301.1,46.4z M291.8,25.5c-1.7-2-4.3-3.1-6.9-3
		c-2.6-0.1-5.1,1-6.9,2.9c-1.8,2-2.7,4.6-2.6,7.2c-0.1,2.6,0.9,5.2,2.6,7.2c1.8,1.9,4.3,3,6.9,2.9c2.6,0.1,5.2-1,6.9-3
		c1.7-2,2.7-4.6,2.6-7.2C294.5,29.9,293.5,27.4,291.8,25.5L291.8,25.5z"/>
</g>
<g>
	<path class="st3" d="M86.4,102.8c-3,2.7-7.2,4.1-12.4,4.1H56.6c-2.3,0-3.4-1.2-3.4-3.5V62.9c0-2.3,1.1-3.4,3.4-3.4h16.6
		c4.4,0,8,1.1,10.6,3.2c2.6,2.1,4,5.2,3.9,8.5c0,4.8-2.4,8.2-7.3,10.3c2.8,0.4,5.3,1.7,7.3,3.7c2,2.3,3,5.3,2.9,8.3
		C90.6,97.1,89.1,100.5,86.4,102.8z M73.4,65.7H60v13.2h13.5c2,0.1,4-0.7,5.4-2.1c1.2-1.3,1.8-3,1.8-4.7
		C80.8,67.8,78.3,65.7,73.4,65.7z M60,85v15.8h14.5c6.1,0,9.2-2.7,9.2-8S80.6,85,74.4,85H60z"/>
	<path class="st3" d="M99,78.8c0-2.2,1.1-3.3,3.3-3.3c2.2,0,3.4,1.1,3.4,3.3V93c0,5.8,2.7,8.7,8,8.7c2.3,0.1,4.6-0.8,6.2-2.5
		c1.5-1.7,2.3-3.9,2.2-6.2V78.8c0-2.2,1.1-3.3,3.3-3.3c2.2,0,3.3,1.1,3.3,3.3v25.3c0,2.3-1.1,3.4-3.3,3.4s-3.3-1.1-3.3-3.4v-2.3
		c-2.1,4-5.5,6-10.3,6c-3.6,0.2-7.1-1.4-9.5-4.1c-2.3-2.9-3.6-6.6-3.4-10.4L99,78.8L99,78.8z"/>
	<path class="st3" d="M146.2,104.2c0,2.2-1.1,3.3-3.4,3.3s-3.3-1.1-3.3-3.3V62.4c0-2.2,1.1-3.3,3.3-3.3s3.4,1.1,3.4,3.3V104.2z"/>
	<path class="st3" d="M163.6,104.2c0,2.2-1.1,3.3-3.4,3.3s-3.3-1.1-3.3-3.3V62.4c0-2.2,1.1-3.3,3.3-3.3s3.4,1.1,3.4,3.3V104.2z"/>
	<path class="st3" d="M198.9,80c2.7,3.2,4.2,7.4,4,11.6c0,1.5-0.9,2.3-2.6,2.3H179c0.4,5.7,3.6,8.6,9.6,8.6c3.1-0.1,6.1-1.3,8.3-3.5
		c0.6-0.7,1.3-1.1,2.2-1.1c1.9,0,2.8,0.9,2.8,2.8c0,0.7-0.4,1.4-0.9,1.9c-3,3.5-7.2,5.2-12.6,5.2c-5.1,0-9.1-1.6-12.1-4.8
		c-2.8-3-4.1-6.8-4.1-11.5c-0.1-4.3,1.5-8.6,4.5-11.7c3-3.1,7.1-4.7,11.4-4.6C192.2,75,196.2,76.8,198.9,80z M196.8,88.4
		c-0.3-2.1-1.2-4.1-2.7-5.6c-1.6-1.6-3.7-2.4-5.9-2.4c-5.2,0-8.1,2.6-8.9,7.9h17.5V88.4z"/>
	<path class="st3" d="M222.1,104.2c0,2.2-1.1,3.3-3.3,3.3c-2.2,0-3.3-1.1-3.3-3.3V81.6h-5.4c-1.9,0-2.8-0.9-2.8-2.8s0.9-2.8,2.8-2.8
		h5.4v-9.3c0-2.2,1.1-3.3,3.3-3.3c2.2,0,3.3,1.1,3.3,3.3V76h6.1c1.9,0,2.8,0.9,2.8,2.8s-0.9,2.8-2.8,2.8h-6.1V104.2L222.1,104.2z"/>
</g>
</svg>
